<?xml version="1.0" encoding="UTF-8"?>
<svg id="Layer_1" data-name="Layer 1" xmlns="http://www.w3.org/2000/svg" viewBox="0 0 228.22 96.64" >
  <defs>
    <style>
      .cls-1 {
        fill: #fff;
      }
    </style>
  </defs>
  <path class="cls-1" d="M16.41,42.59c2.84-3.1-.65-5.66-1.08-8.82-1.82,3.46-2.15,6.51,1.08,8.82Z"/>
  <path class="cls-1" d="M43.46,12.12c2.84-3.78-.65-6.9-1.08-10.75-1.82,4.22-2.15,7.93,1.08,10.75Z"/>
  <path class="cls-1" d="M14.31,45.49c5.05,1.34,9.96,2.99,14.43,5.37,4.05,2.15,7.74,4.89,10.86,8.56,1.29-1.17,2.61-2.44,4.01-3.61,2.28-1.91,4.71-3.52,7.27-4.91,3.45-1.88,7.11-3.34,10.92-4.51,5.25-1.61,10.54-2.64,15.92-.26-.57-.61-1.16-1.17-1.84-1.55-2.94-1.63-6.14-1.51-9.25-.94-.32,.06-.63,.13-.94,.19,.23-.89,.41-1.79,.41-2.67,0-2.67-1.78-4.81-4.58-5.73-.16,2.14,.15,4.34-.59,6.26-1.12,2.89-4.16,3.77-7.35,2.64-3.1-1.09-4.2-3.57-2.58-6.28,.78-1.31,1.9-2.49,2.92-3.69,3.32-3.88,3.06-6.76-1.24-10.56,.06,2.56-.03,4.94-3.23,6.82-1.52-5.89-5.26-10.41-9.93-14.48-3.42-2.98-7.45-5.66-7.62-10.36-2.46,4.11-3.45,7.96,.21,11.97,3.36,3.68,5.42,7.85,4.46,12.62-.56,2.79-2.95,4.65-5.84,4.64-2.99,0-5.43-2.05-5.76-4.96-.15-1.31-.03-2.64-.03-4.21-3.18,2.88-5.36,5.91-3.41,9.55,2.1,3.92,1.46,7.28-.06,10.5-.92-.34-1.85-.66-2.79-.95-3.57-1.12-7.21-1.79-10.99-1.53-2.56,.17-4.9,1.31-5.64,2.83,4-2.05,8.2-1.81,12.26-.73Z"/>
  <path class="cls-1" d="M76.83,48.66c-1.42-.03-2.85-.27-4.26-.17-7,.52-13.36,3.15-19.54,6.23-3.77,1.88-6.98,4.32-10.43,7.06-3.03,2.41-3.48,2.21-6.52-.44-13.89-12.16-28.53-13.42-33.6-12.72-1.56,.22-1.95,.91-1.78,2.32,.78,6.32,1.31,12.68,2.35,18.96,.78,4.71,2.16,9.32,3.33,13.96,.33,1.3,1.2,2.12,2.44,2.75,6.1,3.06,12.51,5.2,19.12,6.78,1.24,.3,2.5,.56,3.76,.8,.02,0,.04,.01,.06,.02,7.76,1.87,9.1,2.23,22.55-1.59,1.34-.35,2.66-.74,3.98-1.15,.11-.03,.22-.06,.33-.1h0c4.13-1.32,8.16-2.91,12.03-4.93,.83-.43,1.59-1.29,2.02-2.13,.64-1.26,1.1-2.65,1.4-4.03,1.05-4.93,2.16-9.86,2.92-14.85,.74-4.83,1.05-9.73,1.58-14.59,.15-1.36-.25-2.15-1.74-2.18Zm-42.16,40.43c-.14,.14-.3,.19-.49,.15-.68-.14-1.34-.3-1.96-.49-.62-.19-1.32-.41-2.09-.66-.42-.11-.65-.35-.68-.72l-1.14-10.14-3.28,6.91c-.16,.32-.41,.43-.76,.33-.35-.09-.67-.2-.96-.33-.29-.1-.58-.22-.86-.34-.28-.12-.47-.33-.56-.63h-.03s-4.77-11.23-4.77-11.23l-.28,10.21c0,.2-.09,.34-.26,.44-.17,.1-.37,.1-.57,0-.69-.33-1.35-.66-1.99-.98-.64-.33-1.35-.71-2.11-1.16-.46-.23-.67-.52-.64-.88l.77-22.11c0-.23,.07-.4,.24-.5,.16-.1,.35-.1,.55,0,.73,.37,1.37,.69,1.91,.98,.54,.29,1.18,.6,1.91,.94,.4,.09,.66,.33,.78,.71l5.34,14.73,4.11-11.14c.11-.27,.31-.39,.59-.37,.37,.08,.72,.17,1.04,.26l1.81,.46c.16,.03,.33,.07,.49,.12,.16,.05,.34,.09,.52,.13,.21,.03,.4,.14,.56,.36,.16,.21,.24,.44,.26,.67l2.77,23.74c0,.2-.06,.37-.2,.51Zm30.99-25.06c-.01,.19-.11,.39-.3,.6-.19,.21-.4,.35-.63,.42l-9.85,2.72-.05,4.84,6.69-1.97c.67-.18,.98-.04,.92,.41l-.45,4.66c-.01,.19-.1,.37-.26,.55-.16,.18-.34,.3-.53,.34l-6.43,1.33-.07,9.44c0,.23-.08,.44-.25,.64-.17,.2-.37,.31-.61,.33-.84,.11-1.56,.22-2.17,.33-.61,.11-1.31,.22-2.12,.33-.23,.02-.42-.04-.58-.17-.16-.13-.24-.32-.25-.56l-.32-23.5c-.02-.38,.23-.67,.72-.88l.25-.08c.13-.09,.24-.15,.31-.17l15.78-5.4c.43-.14,.63,.01,.61,.47l-.42,5.33Z"/>
  <g>
    <path class="cls-1" d="M112.11,43.84V19.95l-6.51,23.89h-7.25l-6.46-23.79v23.79h-6.77V8.97h10.71l6.3,25.57,6.3-25.57h10.5V43.84h-6.83Z"/>
    <path class="cls-1" d="M138.98,43.84c-.21-.63-.37-1.52-.42-2.31-1.63,1.79-4.36,2.99-7.82,2.99-5.88,0-8.61-2.89-8.61-7.09,0-7.46,4.99-8.3,11.87-9.24,3.41-.47,4.36-1.16,4.36-2.94,0-1.68-1.68-2.68-4.36-2.68-3.1,0-4.36,1.52-4.67,3.83h-6.35c.11-5.36,3.05-9.08,11.34-9.08s11.03,3.68,11.03,10.19v16.33h-6.35Zm-.47-12.65c-.68,.68-1.89,1.05-4.41,1.52-3.89,.74-5.15,1.84-5.15,4.04,0,1.94,1.16,2.89,3.31,2.89,3.52,0,6.14-2.57,6.2-5.62l.05-2.84Z"/>
    <path class="cls-1" d="M165.91,43.84v-15.65c0-3.99-1.16-5.09-4.41-5.09-3.57,0-5.3,2-5.3,5.93v14.81h-6.83V18h6.51v3.78c1.58-2.89,4.2-4.46,8.35-4.46,4.94,0,8.56,2.99,8.56,8.61v17.9h-6.88Z"/>
    <path class="cls-1" d="M194.83,40.37c-.95,2.31-3.73,3.68-7.09,3.68-8.51,0-11.45-6.51-11.45-13.28,0-8.03,5.04-13.44,11.29-13.44,3.26,0,5.62,1.26,7.25,3.89v-3.2h6.83v26.1c0,7.77-5.67,11.97-12.86,11.97s-12.5-4.15-12.5-10.82h6.35c0,3.1,2.26,4.94,5.67,4.94,3.62,0,6.51-2.15,6.51-5.57v-4.25Zm.21-8.82c0-5.62-1.94-8.3-5.83-8.3s-5.83,2.57-5.83,7.88c0,4.62,2.47,7.56,5.83,7.56s5.83-2.78,5.83-7.14Z"/>
    <path class="cls-1" d="M221.67,43.84c-.21-.63-.37-1.52-.42-2.31-1.63,1.79-4.36,2.99-7.82,2.99-5.88,0-8.61-2.89-8.61-7.09,0-7.46,4.99-8.3,11.87-9.24,3.41-.47,4.36-1.16,4.36-2.94,0-1.68-1.68-2.68-4.36-2.68-3.1,0-4.36,1.52-4.67,3.83h-6.35c.11-5.36,3.05-9.08,11.34-9.08s11.03,3.68,11.03,10.19v16.33h-6.35Zm-.47-12.65c-.68,.68-1.89,1.05-4.41,1.52-3.89,.74-5.15,1.84-5.15,4.04,0,1.94,1.16,2.89,3.31,2.89,3.52,0,6.14-2.57,6.2-5.62l.05-2.84Z"/>
    <path class="cls-1" d="M92.42,71.04v14.7h-7.3V50.88h22.84v6.09h-15.54v7.93h13.33v6.14h-13.33Z"/>
    <path class="cls-1" d="M112.03,56.81v-6.35h6.83v6.35h-6.83Zm0,28.93v-25.83h6.83v25.83h-6.83Z"/>
    <path class="cls-1" d="M123.77,85.74v-25.83h6.41v3.1c2.26-3.47,4.88-3.78,7.67-3.78h.89v6.98c-.63-.11-1.26-.16-1.89-.16-4.2,0-6.25,2.1-6.25,6.25v13.44h-6.83Z"/>
    <path class="cls-1" d="M147.67,74.61c.21,3.89,2.42,6.41,5.78,6.41,2.21,0,4.15-1.1,4.62-2.89h7.04c-1.58,5.3-5.83,8.3-11.34,8.3-8.61,0-12.92-4.73-12.92-14.07,0-7.98,4.57-13.13,12.5-13.13s12.13,5.15,12.13,15.38h-17.8Zm10.76-4.31c-.11-3.83-2.63-5.67-5.3-5.67s-4.99,2.1-5.25,5.67h10.55Z"/>
    <path class="cls-1" d="M168.39,85.74v-7.09h7.3v7.09h-7.3Z"/>
    <path class="cls-1" d="M201.66,72.83c0-8.19,5.09-13.6,13.28-13.6s13.13,5.36,13.13,13.6-5.09,13.6-13.13,13.6-13.28-5.57-13.28-13.6Zm19.53,0c0-5.25-2.1-7.82-6.25-7.82s-6.25,2.57-6.25,7.82,2.1,7.88,6.25,7.88,6.25-2.63,6.25-7.88Z"/>
    <path class="cls-1" d="M185.12,57.96c-2.17-.32-5.22-1.29-6.72-3.31v21.38c0,5.57,2.99,10.4,10.55,10.4s10.45-4.88,10.45-10.34v-1.47h-6.35v.84c0,3.2-1.26,5.04-3.99,5.04s-3.94-1.89-3.94-5.15v-7.93h14.28v-4.83h-14.28v-4.63Z"/>
  </g>
</svg>