<?xml version="1.0" encoding="UTF-8"?>
<svg id="Layer_1" data-name="Layer 1" xmlns="http://www.w3.org/2000/svg" xmlns:xlink="http://www.w3.org/1999/xlink" viewBox="0 0 139.06 139.06">
  <defs>
    <style>
      .cls-1 {
        fill: #fff;
      }

      .cls-2 {
        fill: url(#linear-gradient);
      }
    </style>
    <linearGradient id="linear-gradient" x1="69.53" y1="139.06" x2="69.53" y2="0" gradientUnits="userSpaceOnUse">
      <stop offset="0" stop-color="#7b4fe8"/>
      <stop offset="1" stop-color="#348cf4"/>
    </linearGradient>
  </defs>
  <rect class="cls-2" width="139.06" height="139.06" rx="23.07" ry="23.07"/>
  <path class="cls-1" d="M9.88,110.62c7.21-7.87-1.65-14.38-2.75-22.42-4.63,8.8-5.45,16.53,2.75,22.42Z"/>
  <path class="cls-1" d="M78.62,33.18c7.21-9.59-1.65-17.53-2.75-27.33-4.63,10.73-5.45,20.15,2.75,27.33Z"/>
  <path class="cls-1" d="M23.07,139.06H115.99c12.74,0,23.07-10.33,23.07-23.07v-3.01c-.53,.09-1.06,.18-1.58,.27-.8,.15-1.6,.32-2.39,.48,.58-2.27,1.05-4.54,1.05-6.79-.01-6.79-4.52-12.21-11.63-14.57-.42,5.43,.38,11.02-1.51,15.91-2.83,7.35-10.57,9.57-18.68,6.72-7.87-2.78-10.66-9.07-6.55-15.95,1.98-3.33,4.82-6.33,7.43-9.38,8.44-9.86,7.77-17.19-3.16-26.83,.15,6.52-.07,12.56-8.2,17.34-3.86-14.98-13.38-26.45-25.23-36.79-8.68-7.58-18.93-14.39-19.35-26.32-6.25,10.45-8.78,20.24,.52,30.41,8.54,9.35,13.77,19.94,11.33,32.08-1.42,7.09-7.5,11.82-14.83,11.8-7.59-.02-13.79-5.2-14.64-12.61-.38-3.33-.07-6.72-.07-10.7-8.09,7.33-13.62,15.03-8.68,24.26,5.34,9.96,3.72,18.51-.17,26.68-2.34-.85-4.71-1.67-7.1-2.43C10.49,114.93,5.29,113.7,0,113.05v2.94C0,128.73,10.33,139.06,23.07,139.06Z"/>
</svg>